<svg xmlns="http://www.w3.org/2000/svg" width="154" height="36" viewBox="-0.2 -0.4 154 37" fill="none"><g id="CareDx Logo" clip-path="url(#clip0_0_1)"><g><path d="M14.3668 27.0502C14.1464 22.8018 18.7081 19.4892 20.0576 14.0331C17.6839 10.0043 15.0718 5.65089 14.2906 1.03033C13.9162 -1.1841 12.1992 -0.502562 11.1773 0.751827C7.02692 5.84712 0.332315 16.92 0.0138121 23.6818C-0.303936 30.4171 4.89929 36.1343 11.6346 36.4521C14.3034 36.5781 16.8447 35.837 18.9474 34.4784C16.2077 33.2422 14.5548 30.6775 14.3668 27.0495V27.0502Z" fill="#E40032"></path><path d="M30.9072 24.7488C30.4445 20.3086 26.0972 14.3884 22.8088 9.20102C22.1348 8.13683 20.3257 8.59572 20.4124 10.3414C20.4789 11.6819 20.337 12.9031 20.0577 14.0329C22.371 17.9583 24.4579 21.5758 24.4051 24.8318C24.3386 28.9022 22.1521 32.4087 18.9475 34.479C20.1656 35.0285 21.5982 35.316 23.2141 35.316C27.8542 35.316 31.4506 29.9694 30.9064 24.7488H30.9072Z" fill="#BDD6F6"></path><path class="droplet-center" d="M24.4052 24.8302C24.458 21.5749 22.3711 17.9567 20.0578 14.0312C18.7076 19.4873 14.1466 22.7999 14.367 27.0484C14.555 30.6764 16.2079 33.2411 18.9476 34.4773C22.1522 32.4071 24.3387 28.9005 24.4052 24.8302Z" fill="#A6192E"></path></g></g><g clip-path="url(#clip1_0_1)"><g><g><path class="tagline" d="M39.019 41.5687V40.2377H45.1731V41.5687H42.8287V47.8553H41.3425V41.5687H38.9981H39.019ZM44.5033 45.1318C44.5033 43.4321 45.6755 42.2444 47.392 42.2444C49.1084 42.2444 50.2807 43.4526 50.2807 45.1318C50.2807 46.8109 49.1084 48.0191 47.392 48.0191C45.6755 48.0191 44.5033 46.8314 44.5033 45.1318ZM48.8154 45.1318C48.8154 44.1898 48.2293 43.555 47.392 43.555C46.5547 43.555 45.9686 44.2103 45.9686 45.1318C45.9686 46.0533 46.5547 46.7085 47.392 46.7085C48.2293 46.7085 48.8154 46.0533 48.8154 45.1318ZM51.1389 48.5925L52.4158 48.142C52.6879 48.7358 53.1065 49.002 53.7554 49.002C54.6765 49.002 55.1788 48.4491 55.1788 47.2614V47.0157C54.7811 47.63 54.1532 47.8348 53.5252 47.8348C51.8506 47.8348 50.9714 46.5447 50.9714 45.0499C50.9714 43.555 52.0599 42.2444 53.4833 42.2444C54.9067 42.2444 54.8858 42.654 55.1998 43.125V42.3878H56.5813V47.3024C56.5813 49.514 55.2416 50.1488 53.7973 50.1488C52.353 50.1488 51.6413 49.8621 51.1389 48.5925ZM55.1998 45.0294C55.1998 44.1898 54.6137 43.555 53.7973 43.555C52.9809 43.555 52.3948 44.2103 52.3948 45.0294C52.3948 45.8485 52.9809 46.5242 53.7973 46.5242C54.6137 46.5242 55.1998 45.8485 55.1998 45.0294ZM57.5861 45.1523C57.5861 43.4731 58.7374 42.2444 60.3701 42.2444C62.0028 42.2444 63.0494 43.1455 63.0494 45.1523V45.5208H58.9676C59.0932 46.3604 59.7212 46.7904 60.4538 46.7904C61.1865 46.7904 61.5214 46.4833 61.7726 45.9304L63.0913 46.4423C62.7145 47.3433 61.7726 48.0191 60.4748 48.0191C59.1769 48.0191 57.5861 46.8928 57.5861 45.1523ZM60.3701 43.4117C59.6584 43.4117 59.1979 43.9031 59.0514 44.5789H61.647C61.5423 43.7393 60.9771 43.4117 60.3492 43.4117H60.3701ZM64.5356 46.1147V43.6369H63.4262V42.3878H64.5356V40.852H65.9381V42.3878H67.4453V43.6369H65.9381V45.6232C65.9381 46.1352 65.9381 46.77 66.6917 46.77C67.4453 46.77 67.215 46.6881 67.4453 46.5652V47.7938C67.1731 47.9372 66.7964 47.9986 66.3986 47.9986C64.5357 47.9986 64.5356 46.6676 64.5356 46.0942V46.1147ZM68.4291 40.0329H69.8316V43.2069C70.2502 42.5516 70.8572 42.2444 71.548 42.2444C72.5737 42.2444 73.4947 42.9202 73.4947 44.4151V47.8553H72.0923V45.0294C72.0923 44.3127 71.9039 43.555 71.0456 43.555C70.1874 43.555 69.8106 44.0055 69.8106 45.0499V47.8758H68.4081V40.0534L68.4291 40.0329ZM74.4786 45.1523C74.4786 43.4731 75.6298 42.2444 77.2626 42.2444C78.8953 42.2444 79.9419 43.1455 79.9419 45.1523V45.5208H75.8601C75.9857 46.3604 76.6137 46.7904 77.3463 46.7904C78.0789 46.7904 78.4139 46.4833 78.665 45.9304L79.9838 46.4423C79.607 47.3433 78.6651 48.0191 77.3672 48.0191C76.0694 48.0191 74.4786 46.8928 74.4786 45.1523ZM77.2416 43.4117C76.5299 43.4117 76.0694 43.9031 75.9229 44.5789H78.5185C78.4139 43.7393 77.8487 43.4117 77.2207 43.4117H77.2416ZM80.9885 42.4083H82.3701V43.2478H82.412C82.6841 42.7154 83.2283 42.2444 83.9819 42.2444C84.7355 42.2444 84.3377 42.2649 84.5261 42.3468V43.8826C84.2959 43.8007 84.0238 43.7803 83.8563 43.7803C82.5585 43.7803 82.412 44.968 82.412 45.7461V47.8553H81.0095V42.4083H80.9885ZM87.352 40.7086C87.352 40.2581 87.7288 39.8691 88.2312 39.8691C88.7336 39.8691 89.0894 40.2581 89.0894 40.7086C89.0894 41.1591 88.7126 41.5687 88.2312 41.5687C87.7497 41.5687 87.352 41.1796 87.352 40.7086ZM87.5195 42.4083H88.9219V47.8553H87.5195V42.4083ZM90.2826 42.4083H91.6641V43.2069C92.0827 42.5516 92.7107 42.2444 93.4015 42.2444C94.4272 42.2444 95.3482 42.9202 95.3482 44.4151V47.8553H93.9457V45.0294C93.9457 44.3127 93.7573 43.555 92.8991 43.555C92.0409 43.555 91.6641 44.0055 91.6641 45.0499V47.8758H90.2616V42.4287L90.2826 42.4083ZM98.1741 41.5687V40.2377H104.328V41.5687H101.984V47.8553H100.498V41.5687H98.1531H98.1741ZM104.224 42.4083H105.605V43.2478H105.647C105.919 42.7154 106.463 42.2444 107.217 42.2444C107.97 42.2444 107.573 42.2649 107.761 42.3468V43.8826C107.531 43.8007 107.259 43.7803 107.091 43.7803C105.793 43.7803 105.647 44.968 105.647 45.7461V47.8553H104.244V42.4083H104.224ZM108.096 46.4219C108.096 45.398 108.912 44.9884 109.896 44.7837C111.152 44.5174 111.55 44.4765 111.55 44.0465C111.55 43.6164 111.194 43.3502 110.671 43.3502C110.147 43.3502 109.771 43.6164 109.582 44.2308L108.264 43.8007C108.619 42.6745 109.624 42.2444 110.713 42.2444C111.801 42.2444 112.952 42.8997 112.952 44.1898V46.1556C112.952 47.0362 113.015 47.4253 113.141 47.8553H111.759C111.676 47.63 111.655 47.4048 111.655 47.1386C111.362 47.671 110.734 48.0191 110.001 48.0191C109.268 48.0191 108.138 47.4867 108.138 46.4219H108.096ZM111.55 45.8075V45.3775C111.278 45.5004 110.754 45.6232 110.461 45.6847C110.022 45.7871 109.603 45.9918 109.603 46.4014C109.603 46.8109 109.917 46.9747 110.357 46.9747C111.089 46.9747 111.55 46.3604 111.55 45.8075ZM114.292 42.4083H115.674V43.2069C116.092 42.5516 116.72 42.2444 117.411 42.2444C118.437 42.2444 119.358 42.9202 119.358 44.4151V47.8553H117.955V45.0294C117.955 44.3127 117.767 43.555 116.909 43.555C116.05 43.555 115.674 44.0055 115.674 45.0499V47.8758H114.271V42.4287L114.292 42.4083ZM120.216 46.4833L121.514 46.0737C121.765 46.6881 122.225 46.8928 122.623 46.8928C123.021 46.8928 123.356 46.77 123.356 46.3809C123.356 45.9918 122.937 45.869 122.56 45.7461L121.974 45.5618C121.284 45.357 120.467 44.9475 120.467 43.9441C120.467 42.9407 121.367 42.224 122.56 42.224C123.754 42.224 124.465 42.8383 124.695 43.596L123.398 44.0055C123.272 43.6369 123 43.3298 122.519 43.3298C122.037 43.3298 121.849 43.5345 121.849 43.8417C121.849 44.1489 122.372 44.3946 122.833 44.5174L123.272 44.6403C123.816 44.8041 124.842 45.0703 124.842 46.2171C124.842 47.3638 123.984 47.9781 122.623 47.9781C121.263 47.9781 120.446 47.3433 120.195 46.4423L120.216 46.4833ZM125.847 42.4083H127.228V43.2274C127.71 42.5516 128.317 42.2649 129.029 42.2649C130.557 42.2649 131.457 43.555 131.457 45.1318C131.457 46.7085 130.243 48.0396 128.924 48.0396C127.605 48.0396 127.542 47.6095 127.228 47.1795V50.0259H125.826V42.4287L125.847 42.4083ZM130.033 45.1318C130.033 44.2103 129.447 43.555 128.631 43.555C127.814 43.555 127.228 44.2103 127.228 45.1318C127.228 46.0533 127.835 46.7085 128.631 46.7085C129.426 46.7085 130.033 46.0533 130.033 45.1318ZM132.503 40.0329H133.906V47.8553H132.503V40.0329ZM134.911 46.4219C134.911 45.398 135.727 44.9884 136.711 44.7837C137.967 44.5174 138.364 44.4765 138.364 44.0465C138.364 43.6164 138.009 43.3502 137.485 43.3502C136.962 43.3502 136.585 43.6164 136.397 44.2308L135.078 43.8007C135.434 42.6745 136.439 42.2444 137.527 42.2444C138.616 42.2444 139.767 42.8997 139.767 44.1898V46.1556C139.767 47.0362 139.83 47.4253 139.955 47.8553H138.574C138.49 47.63 138.469 47.4048 138.469 47.1386C138.176 47.671 137.548 48.0191 136.815 48.0191C136.083 48.0191 134.952 47.4867 134.952 46.4219H134.911ZM138.385 45.8075V45.3775C138.113 45.5004 137.59 45.6232 137.297 45.6847C136.857 45.7871 136.439 45.9918 136.439 46.4014C136.439 46.8109 136.753 46.9747 137.192 46.9747C137.925 46.9747 138.385 46.3604 138.385 45.8075ZM141.127 42.4083H142.509V43.2069C142.928 42.5516 143.556 42.2444 144.246 42.2444C145.272 42.2444 146.193 42.9202 146.193 44.4151V47.8553H144.791V45.0294C144.791 44.3127 144.602 43.555 143.744 43.555C142.886 43.555 142.509 44.0055 142.509 45.0499V47.8758H141.107V42.4287L141.127 42.4083ZM147.993 46.1147V43.6369H146.884V42.3878H147.993V40.852H149.396V42.3878H150.903V43.6369H149.396V45.6232C149.396 46.1352 149.396 46.77 150.149 46.77C150.903 46.77 150.673 46.6881 150.903 46.5652V47.7938C150.631 47.9372 150.254 47.9986 149.856 47.9986C147.993 47.9986 147.993 46.6676 147.993 46.0942V46.1147Z" fill="#E40032"></path><path class="logo-text" d="M59.2821 25.8011V30.4085C57.0842 31.9648 54.1956 32.8248 50.972 32.8248C42.9339 32.8248 37.5752 27.6236 37.5752 20.1698C37.5752 12.716 42.9339 7.57611 50.9092 7.57611C58.8844 7.57611 56.9796 8.39521 59.2612 9.99245V14.5999C57.0633 10.9959 54.1746 9.48052 50.951 9.48052C45.7179 9.48052 42.4106 13.7808 42.4106 19.9855C42.4106 26.1901 45.9691 30.8385 51.3278 30.8385C56.6865 30.8385 57.2936 29.3437 59.3031 25.8215L59.2821 25.8011ZM66.9853 32.8248C63.7198 32.8248 61.3963 31.0433 61.3963 28.1355C61.3963 25.2277 63.678 23.7943 67.8854 22.8933C71.2346 22.197 72.4696 21.1936 72.4696 19.2073C72.4696 17.221 71.2974 16.1971 69.3506 16.1971C67.4039 16.1971 64.9548 17.7125 63.05 20.5793V16.5657C64.7664 15.1937 67.383 14.4156 69.874 14.4156C74.0395 14.4156 76.7398 16.6476 76.7398 20.436V27.1116C76.7398 28.9956 76.9282 31.0023 77.3887 32.4153H72.9929L72.6789 29.7737H72.637C71.6114 31.6576 69.4762 32.7839 66.9434 32.7839L66.9853 32.8248ZM69.3925 24.3267C66.776 25.0639 65.7921 26.2925 65.7921 27.8488C65.7921 29.4051 66.9643 30.6338 68.6389 30.6338C70.3135 30.6338 72.5533 28.9546 72.5533 25.3301V22.5451C71.8416 23.3642 70.8159 23.9171 69.3925 24.3267ZM88.0643 17.8149C85.971 17.8149 84.2964 19.924 84.2964 23.7533V27.1321C84.2964 28.8317 84.4011 30.5518 84.6732 32.4358H79.9634V20.0674C79.9634 18.2858 79.8587 16.5862 79.5866 14.7842H84.1708V19.2073H84.2127C84.8197 16.3405 86.599 14.518 89.1946 14.518C91.7902 14.518 90.4506 14.5999 91.0576 14.8866V19.2688C89.99 18.1834 88.9644 17.7739 88.0643 17.7739V17.8149ZM108.787 22.3199C108.787 22.8728 108.746 23.4666 108.641 23.9581H96.2279C96.3116 28.2379 98.5095 31.0433 101.817 31.0433C105.124 31.0433 106.485 29.528 107.741 26.8864V31.1662C105.836 32.3129 103.722 32.8453 101.356 32.8453C95.3906 32.8453 91.6856 29.057 91.6856 23.5895C91.6856 18.122 95.3697 14.4565 100.687 14.4565C106.003 14.4565 108.808 17.7534 108.808 22.3199H108.787ZM100.749 16.2176C98.0072 16.2176 96.2698 18.7363 96.2698 22.238H104.81C104.915 18.593 103.408 16.2176 100.749 16.2176ZM119.923 7.94471C128.192 7.94471 133.634 12.8798 133.634 20.1902C133.634 27.5007 128.213 32.4358 119.923 32.4358H111.195V7.94471H119.923ZM115.863 30.6338H118.019C125.91 30.6338 128.799 26.1697 128.799 20.1698C128.799 14.1699 125.91 9.72625 118.019 9.72625H115.863V30.6338ZM145.649 32.4563L141.086 25.9239L138.428 29.6099C137.716 30.5723 137.297 31.5348 136.9 32.4767H133.676L139.977 24.3062L133.446 14.8456H138.009L142.593 21.5008L145.105 18.0196C145.859 17.0162 146.319 16.0538 146.822 14.8661H149.982L143.786 23.18L150.192 32.4972H145.628L145.649 32.4563Z" fill="#ffffff"></path><path class="copyright" d="M152.104 14.7266C153.106 14.7266 153.999 15.4473 153.999 16.5674C153.999 17.6874 153.106 18.418 152.104 18.418C151.102 18.418 150.209 17.6927 150.209 16.5674C150.209 15.4421 151.102 14.7266 152.104 14.7266ZM152.104 18.0225C152.869 18.0225 153.496 17.4104 153.496 16.5666C153.496 15.7228 152.869 15.1205 152.104 15.1205C151.339 15.1205 150.712 15.7274 150.712 16.5666C150.712 17.4059 151.329 18.0225 152.104 18.0225ZM151.369 15.5304H152.149C152.667 15.5304 152.958 15.6934 152.958 16.1425C152.958 16.5221 152.721 16.6708 152.415 16.6949L152.968 17.5984H152.538L152.035 16.7153H151.778V17.5984H151.368V15.5304H151.369ZM151.778 16.3946H152.143C152.375 16.3946 152.548 16.3598 152.548 16.1085C152.548 15.8866 152.311 15.8519 152.124 15.8519H151.778V16.3946Z" fill="#004762"></path><g class="droplet"><path id="droplet-right" d="M14.3605 26.8659C14.1302 22.709 18.6935 19.4735 20.0541 14.1289C17.6887 10.1972 15.0722 5.93792 14.2977 1.41239C13.9209 -0.758221 12.2044 -0.0824642 11.1788 1.14618C7.03413 6.12221 0.335748 16.9548 0.000828865 23.569C-0.313158 30.1628 4.87809 35.7531 11.6183 36.0603C14.2768 36.1832 16.8305 35.4664 18.9238 34.1354C16.1816 32.9272 14.5279 30.4085 14.3396 26.8659H14.3605Z" fill="#E40032"></path><path id="droplet-left" d="M30.8968 24.6128C30.4362 20.2715 26.0823 14.4764 22.7959 9.39801C22.1261 8.35366 20.3049 8.80416 20.4096 10.5038C20.4724 11.8144 20.3259 13.002 20.0538 14.1078C22.3773 17.9576 24.4496 21.4797 24.4077 24.6742C24.3449 28.6468 22.147 32.0871 18.9443 34.1143C20.1584 34.6467 21.6028 34.9334 23.2146 34.9334C27.8616 34.9334 31.441 29.7117 30.8968 24.5923V24.6128Z" fill="#BDD6F6"></path><path class="droplet-center" d="M24.4081 24.6953C24.4709 21.5008 22.3776 17.9787 20.0541 14.1289C18.7144 19.4735 14.1512 22.709 14.3605 26.8659C14.5489 30.4085 16.2025 32.9272 18.9447 34.1354C22.1474 32.1081 24.3453 28.6884 24.4081 24.6953Z" fill="#A6192E"></path></g></g></g></g><defs><clipPath id="clip0_0_1"><rect width="154" height="36.8807" fill="white" transform="translate(0 -0.414062)"></rect></clipPath><clipPath id="clip1_0_1"><rect width="154" height="50.1698" fill="white"></rect></clipPath></defs></svg>