<svg viewBox="0 0 188 228" fill="none" height="228" width="188" xmlns="http://www.w3.org/2000/svg"><mask style="mask-type:luminance" maskUnits="userSpaceOnUse" y="0" x="0" height="228" width="188" id="a"><path d="M45.206 139.313c9.16-15.55 20-29.977 32.282-43.023H58.284a244.277 244.277 0 0 0-24.164 26.802 244.851 244.851 0 0 0-17.038 25.057 94.556 94.556 0 0 0 10.405 12.371l4.563 4.556a242.13 242.13 0 0 1 13.157-25.767m21.146-50.4h18.381a242.39 242.39 0 0 1 27.304-22.946H97.212a243.79 243.79 0 0 0-30.86 22.945Zm89.569-49.699a241.706 241.706 0 0 0-16.776 5.773 243.599 243.599 0 0 0-29.349 13.602h13.076a242.394 242.394 0 0 1 18.955-10.993 240.827 240.827 0 0 1 8.531-4.231 250.337 250.337 0 0 1 9.307-4.154 233.297 233.297 0 0 1 8.36-3.336 250.589 250.589 0 0 0-12.108 3.336l.004.003Zm29.359 32.187c-3.269-15.54-7.115-22.882-7.115-22.882-.699 0-.717-.07-1.678.185-8.462 2.263-16.535 8.039-24.276 12.875-35.699 22.295-63.583 55.81-78.827 95.707a195.011 195.011 0 0 0-10.381 38.761l31.02 31.015 66.534-66.534c24.052-24.061 32.293-58.178 24.727-89.13l-.004.003ZM128.963 37.27a279.577 279.577 0 0 1 32.503-8.9 178 178 0 0 0-.913-.926c-36.593-36.593-96.47-36.593-133.067.004C9.892 45.046.756 68.023.08 91.209c-.234 2.063.115 4.728.115 6.609 0 2.098.35 5.944.591 8.063.643 5.693 1.948 11.312 3.692 16.812A279.206 279.206 0 0 1 128.967 37.27h-.004Z" fill="#fff"></path></mask><g mask="url(#a)"><path d="M224.546-9.148H.081v236.206h224.465V-9.148Z" fill="url(#b)"></path><path d="M108.707 58.574s37.728-18.544 57.551-22.381c19.823-3.837-44.122 22.381-44.122 22.381h-13.429Z" fill="#fff"></path><path clip-rule="evenodd" d="M97.48 65.225C89 69.632 63.946 90.803 63.946 90.803h21.318s19.865-18.386 29.839-25.578H97.48ZM60.105 94.64c-7.505 3.256-40.934 47.54-44.346 53.402-3.41 5.861 15.465 19.537 16.374 16.932.91-2.605 21.15-41.68 48.44-70.334H60.104Z" fill-rule="evenodd" fill="#fff"></path></g><defs><radialGradient gradientUnits="userSpaceOnUse" gradientTransform="matrix(0 -314.947 402.036 0 112.422 305.794)" r="1" cy="0" cx="0" id="b"><stop stop-color="#222935" offset=".17"></stop><stop stop-color="#D2BCA9" offset="1"></stop></radialGradient></defs></svg>