<svg version="1.1" id="Layer_1" xmlns:x="ns_extend;" xmlns:i="ns_ai;" xmlns:graph="ns_graphs;" xmlns="http://www.w3.org/2000/svg" xmlns:xlink="http://www.w3.org/1999/xlink" x="0px" y="0px" viewBox="0 0 831.8 88" style="enable-background:new 0 0 831.8 88;" xml:space="preserve">
 <style type="text/css">
  .st0{fill:#FB263B;}
 </style>
 <metadata>
  <sfw xmlns="ns_sfw;">
   <slices>
   </slices>
   <sliceSourceBounds bottomLeftOrigin="true" height="88" width="831.8" x="-215.6" y="-244.2">
   </sliceSourceBounds>
  </sfw>
 </metadata>
 <g>
  <path class="st0" d="M0,45.2c0-17.8,8.2-25.5,21.9-25.5c12.8,0,20.1,6.2,20.1,23.7v5.4H14.4c0.1,8.8,2.6,12.6,10.9,12.6
		c5.4,0,8.4-1.3,12.7-3.8l3.6,7.6c-4.9,3.6-10.4,5.7-18.3,5.7C7.9,70.9,0,63.6,0,45.2z M14.4,40.7h14.3c0-10.3-1.5-12.9-6.8-12.9
		C17.2,27.8,14.8,30.3,14.4,40.7z">
  </path>
  <path class="st0" d="M79,64.9c-3.3,3.9-7.1,6-12.8,6c-10.7,0-17.5-6.6-17.5-25.4c0-19.4,7.7-25.8,18.2-25.8c5.3,0,8.3,2.4,11.1,4.7
		V8.9l-5.7-1.2V0h19.1v61.8l5.7,0.9v6.9H80.2L79,64.9z M77.8,58.8V32.6c-2-1.5-3.4-2.8-6.9-2.8c-6,0-8,4-8,16
		c0,11.6,1.9,15.7,7.1,15.7C73.2,61.5,76,60.2,77.8,58.8z">
  </path>
  <path class="st0" d="M103,45.2c0-17.8,8.2-25.5,21.9-25.5c12.8,0,20.1,6.2,20.1,23.7v5.4h-27.6c0.1,8.8,2.6,12.6,10.9,12.6
		c5.4,0,8.4-1.3,12.7-3.8l3.6,7.6c-4.9,3.6-10.4,5.7-18.3,5.7C110.9,70.9,103,63.6,103,45.2z M117.5,40.7h14.3
		c0-10.3-1.5-12.9-6.8-12.9C120.3,27.8,117.9,30.3,117.5,40.7z">
  </path>
  <path class="st0" d="M184.3,37.4c0-4.9-1.3-6.8-5.1-6.8c-2.8,0-5.9,1.2-8.4,2.8v28.5l5.4,0.9v6.9h-24.6v-6.9l5.7-0.9V30.4l-5.7-1.3
		V21h17.2l1.3,5.4c4.9-4.3,9.4-6.7,15.5-6.7c7.8,0,12,4.7,12,13.2v28.9l5.6,0.9v6.9h-19.1L184.3,37.4L184.3,37.4z">
  </path>
  <path class="st0" d="M210.1,67.5V54.9h9l1.6,7.1c1.7,0.6,3,0.9,5.6,0.9c5.3,0,7.6-1.9,7.6-5.5c0-4-2.6-5.6-9.4-7.2
		c-9.1-2.4-14.6-6.1-14.6-15.6c0-8.8,6.5-14.9,18.8-14.9c6.8,0,11.5,1.1,15.3,3v12.5h-8.6l-1.6-6.8c-1.5-0.6-3-0.8-5.3-0.8
		c-4.4,0-6.9,1.6-6.9,4.9c0,3.3,2.1,4.9,9.4,6.7c9.7,2.6,15.1,6.2,15.1,16.5c0,10.1-7.9,15.2-19.5,15.2
		C220.1,70.9,214.3,69.6,210.1,67.5z">
  </path>
  <path class="st0" d="M271,26.5c2.6-3,7.4-6.8,13.6-6.8c9.1,0,16.7,5.6,16.7,24.6c0,20.5-7.4,26.2-18.5,26.2
		c-4.7,0-8.6-1.5-11.4-4.1v14.2l5.7,0.9V88h-24.8v-6.5l5.7-0.9V30.4l-5.7-1.3V21h17.2L271,26.5z M286.9,45.1
		c0-11.7-1.6-15.2-7.3-15.2c-3.2,0-6,1.1-8.1,2.6V59c1.7,1.3,4.6,2.8,7.6,2.8C285.3,61.7,286.9,57,286.9,45.1z">
  </path>
  <path class="st0" d="M333.4,62.8v6.9h-24.8v-6.9l5.7-0.9V30.4l-5.7-1.3V21h19.1v40.9L333.4,62.8z M312.5,8.1c0-4.4,3.5-7.9,7.9-7.9
		c4.5,0,7.9,3.5,7.9,7.8s-3.4,7.8-7.8,7.8C316,15.8,312.5,12.3,312.5,8.1z">
  </path>
  <path class="st0" d="M339.2,45.2c0-17.8,8.2-25.5,21.9-25.5c12.8,0,20.1,6.2,20.1,23.7v5.4h-27.6c0.1,8.8,2.6,12.6,10.9,12.6
		c5.4,0,8.4-1.3,12.7-3.8l3.6,7.6c-4.9,3.6-10.4,5.7-18.3,5.7C347.1,70.9,339.2,63.6,339.2,45.2z M353.6,40.7h14.3
		c0-10.3-1.5-12.9-6.8-12.9C356.4,27.8,354,30.3,353.6,40.7z">
  </path>
  <path class="st0" d="M406.6,61.9l5.1,0.9v6.9h-24.1v-6.9l5.6-0.9V9l-5.6-1.3V0h19V61.9z M419.8,29.5l-4.7-0.7v-7.9h20.5V29
		l-5.8,0.8l-10.5,11.7l13.2,20.4l4.9,0.9v6.9h-15l-15.6-24.9L419.8,29.5z">
  </path>
  <path class="st0" d="M442,45.2c0-17.8,8.2-25.5,21.9-25.5c12.8,0,20.1,6.2,20.1,23.7v5.4h-27.6c0.1,8.8,2.6,12.6,10.9,12.6
		c5.4,0,8.4-1.3,12.7-3.8l3.6,7.6c-4.9,3.6-10.4,5.7-18.3,5.7C449.9,70.9,442,63.6,442,45.2z M456.5,40.7h14.3
		c0-10.3-1.5-12.9-6.8-12.9C459.2,27.8,456.9,30.3,456.5,40.7z">
  </path>
  <path class="st0" d="M517.3,62.8v6.9h-26.6v-6.9l5.7-0.9V30.4l-5.7-1.3V21h16.7l1.7,7.9c3.3-6,7.9-9,14.1-9c0.7,0,1.6,0.1,2.1,0.3
		l-1.7,13.9c-1.3-0.7-2.6-1.1-4.7-1.1c-3.6,0-6.4,0.9-9.1,2.6v26L517.3,62.8z">
  </path>
  <path class="st0" d="M575.1,26.6c4.9-4.4,9-6.9,14.9-6.9c7.6,0,11.8,4.7,11.8,13.2v29.3l5.7,0.9v6.5h-19.1V37.6
		c0-4.9-1.2-6.9-4.9-6.9c-2.8,0-5.3,0.9-7.7,2.6v28.5l5.3,0.9v6.9h-18.8V37.6c0-4.9-1.1-6.9-4.9-6.9c-2.6,0-5.1,0.9-7.6,2.6v28.5
		l5.3,0.9v6.9h-24.4v-6.9l5.7-0.9V30.4l-5.7-1.3V21h17.2l1.3,5.4c4.9-4.2,8.8-6.7,14.8-6.7C569.5,19.7,573.5,22.1,575.1,26.6z">
  </path>
  <path class="st0" d="M658.4,68.7c-1.8,1.1-4.9,2.2-8.6,2.2c-4.6,0-7.9-1.2-9.2-5.3c-3,2.8-5.9,5.3-12.4,5.3
		c-8.6,0-14.8-4.4-14.8-14.8c0-10.9,6.8-15.5,23.1-15.5h2.8v-2.4c0-5.3-1.2-7.7-7-7.7c-5.1,0-9.3,1.3-13.9,3.5l-3.8-8.6
		c5.5-3.6,12.3-5.7,20.5-5.7c11.6,0,17.7,4.2,17.7,16v22.5c0,3.2,0.8,3.8,5.1,3.8L658.4,68.7z M639.4,59.5V47.7h-3
		c-6.7,0-9.5,1.5-9.5,7.6c0,4.7,1.8,6.7,5.7,6.7C635.8,61.9,637.8,60.9,639.4,59.5z">
  </path>
  <path class="st0" d="M697.3,37.4c0-4.9-1.3-6.8-5.1-6.8c-2.8,0-5.9,1.2-8.4,2.8v28.5l5.4,0.9v6.9h-24.6v-6.9l5.7-0.9V30.4l-5.7-1.3
		V21H682l1.3,5.4c4.9-4.3,9.3-6.7,15.5-6.7c7.8,0,12,4.7,12,13.2v28.9l5.6,0.9v6.9h-19.1V37.4z">
  </path>
  <path class="st0" d="M755.4,37.4c0-4.9-1.3-6.8-5.1-6.8c-2.8,0-5.9,1.2-8.4,2.8v28.5l5.4,0.9v6.9h-24.6v-6.9l5.7-0.9V30.4l-5.7-1.3
		V21H740l1.3,5.4c4.9-4.3,9.3-6.7,15.5-6.7c7.8,0,12,4.7,12,13.2v28.9l5.6,0.9v6.9h-19.1V37.4z">
  </path>
  <path class="st0" d="M777.6,74.8h54.2v9.7h-54.2V74.8z">
  </path>
 </g>
</svg>