<svg width="166" height="47" viewBox="0 0 166 47" fill="none" xmlns="http://www.w3.org/2000/svg">
<path d="M89.5928 16.4873C91.3373 16.4873 92.8397 16.8799 94.0996 17.666C95.3595 18.4414 96.3236 19.524 96.9912 20.9131C97.6695 22.2913 98.0088 23.8796 98.0088 25.6777C98.0088 27.4974 97.6695 29.1022 96.9912 30.4912C96.3128 31.8696 95.3429 32.9522 94.083 33.7383C92.8231 34.5136 91.3264 34.9014 89.5928 34.9014C87.8592 34.9014 86.3624 34.5086 85.1025 33.7227C83.8534 32.9365 82.8894 31.8481 82.2109 30.459C81.5326 29.0699 81.1934 27.476 81.1934 25.6777C81.1934 23.8472 81.5374 22.2426 82.2266 20.8643C82.9157 19.486 83.8907 18.4149 85.1504 17.6504C86.4103 16.875 87.8913 16.4873 89.5928 16.4873ZM157.923 16.4873C159.678 16.4873 161.17 16.8907 162.397 17.6982C163.636 18.5059 164.562 19.6584 165.176 21.1553C165.8 22.6521 166.07 24.4344 165.983 26.502H152.603C152.711 28.1729 153.165 29.4976 153.966 30.4756C154.892 31.6061 156.211 32.1718 157.923 32.1719C159.075 32.1719 160.077 31.9075 160.928 31.3799C161.778 30.8522 162.446 30.0932 162.931 29.1025L165.692 30.0557C165.014 31.5954 163.991 32.7909 162.624 33.6416C161.267 34.4815 159.743 34.9013 158.053 34.9014C156.341 34.9014 154.843 34.5243 153.562 33.7705C152.291 33.006 151.3 31.9454 150.59 30.5889C149.879 29.2213 149.523 27.6274 149.523 25.8076C149.523 23.9016 149.873 22.2534 150.573 20.8643C151.273 19.4644 152.248 18.3876 153.497 17.6338C154.757 16.8693 156.232 16.4874 157.923 16.4873ZM140.292 16.4873C141.616 16.4873 142.801 16.6973 143.846 17.1172C144.89 17.5372 145.73 18.1349 146.365 18.9102C147.011 19.6746 147.393 20.5681 147.512 21.5908L144.572 22.124C144.432 21.1873 143.979 20.4495 143.215 19.9111C142.461 19.373 141.487 19.088 140.292 19.0557C139.161 19.0126 138.24 19.2118 137.529 19.6533C136.83 20.0948 136.479 20.6926 136.479 21.4463C136.48 21.8661 136.609 22.2269 136.867 22.5283C137.136 22.8298 137.626 23.1156 138.337 23.3848C139.058 23.654 140.103 23.9601 141.471 24.3047C143.011 24.6924 144.222 25.118 145.105 25.5811C145.999 26.0332 146.634 26.5719 147.011 27.1963C147.388 27.81 147.576 28.5692 147.576 29.4736C147.576 31.1535 146.957 32.4781 145.719 33.4473C144.48 34.4057 142.774 34.8847 140.599 34.8848C138.52 34.8848 136.814 34.4327 135.479 33.5283C134.154 32.613 133.341 31.337 133.039 29.7002L135.979 29.2314C136.215 30.1791 136.76 30.9332 137.61 31.4932C138.461 32.0423 139.517 32.3164 140.776 32.3164C141.972 32.3164 142.909 32.0695 143.587 31.5742C144.265 31.0789 144.604 30.4054 144.604 29.5547C144.604 29.0594 144.492 28.6609 144.266 28.3594C144.04 28.0471 143.571 27.7565 142.86 27.4873C142.16 27.2181 141.099 26.8945 139.678 26.5176C138.138 26.1084 136.926 25.6837 136.043 25.2422C135.16 24.8007 134.53 24.2885 134.153 23.707C133.777 23.1256 133.588 22.4199 133.588 21.5908C133.588 20.5681 133.868 19.6745 134.428 18.9102C134.988 18.1348 135.769 17.5372 136.771 17.1172C137.783 16.6972 138.957 16.4873 140.292 16.4873ZM62.0029 11.1562C62.229 11.1562 62.4984 11.1669 62.8105 11.1885C63.1227 11.1992 63.4242 11.2323 63.7148 11.2861C64.9747 11.48 66.0302 11.9105 66.8809 12.5781C67.7423 13.2458 68.3886 14.0912 68.8193 15.1143C69.25 16.1265 69.4658 17.2519 69.4658 18.4902C69.4658 19.7177 69.2452 20.8433 68.8037 21.8662C68.373 22.8784 67.7267 23.724 66.8652 24.4023C66.0145 25.0699 64.9639 25.5005 63.7148 25.6943C63.4242 25.7374 63.1227 25.7695 62.8105 25.791C62.4983 25.8125 62.229 25.8232 62.0029 25.8232H55.6875V34.417H52.8125V11.1562H62.0029ZM79.0518 16.8584C79.644 16.8153 80.1989 16.8532 80.7158 16.9717V19.6689C80.1128 19.5074 79.45 19.4647 78.7285 19.54C78.0072 19.6155 77.3393 19.8789 76.7256 20.3311C76.1657 20.7294 75.7302 21.2145 75.418 21.7852C75.1165 22.3558 74.9065 22.975 74.7881 23.6426C74.6696 24.2995 74.6104 24.9729 74.6104 25.6621V34.417H71.7188V16.9717H74.2871V19.7422C74.4013 19.5385 74.5234 19.341 74.6582 19.1523C74.9919 18.7003 75.3635 18.3288 75.7725 18.0381C76.2247 17.672 76.7369 17.3911 77.3076 17.1973C77.8782 17.0035 78.4597 16.8907 79.0518 16.8584ZM118.477 16.5195C120.296 16.5195 121.729 17.0736 122.773 18.1826C123.818 19.281 124.341 20.7621 124.341 22.625L124.324 34.417H121.449L121.465 23.2549C121.465 21.952 121.115 20.9344 120.415 20.2021C119.726 19.4592 118.827 19.0879 117.718 19.0879C117.072 19.0879 116.457 19.2385 115.876 19.54C115.295 19.8307 114.821 20.2937 114.455 20.9287C114.089 21.5533 113.905 22.356 113.905 23.3359L113.904 23.335L113.89 34.417H111.03L111.047 23.3682C111.047 22.0329 110.702 20.9882 110.013 20.2344C109.324 19.4699 108.408 19.0879 107.267 19.0879C106.136 19.0879 105.22 19.4757 104.521 20.251C103.821 21.0263 103.471 22.0547 103.471 23.3359V34.417H100.579V16.9717H103.147V18.8311C103.634 18.2018 104.236 17.6891 104.957 17.2949C105.883 16.7781 106.933 16.5196 108.106 16.5195C109.28 16.5195 110.304 16.7673 111.176 17.2627C112.048 17.758 112.722 18.4685 113.195 19.3945V19.3955C113.729 18.4977 114.444 17.7968 115.343 17.2949C116.269 16.7781 117.314 16.5196 118.477 16.5195ZM130.454 34.417H127.578V16.9717H130.454V34.417ZM89.5928 19.2168C88.3759 19.2168 87.374 19.4918 86.5879 20.041C85.802 20.5902 85.2157 21.3494 84.8281 22.3184C84.4405 23.2875 84.2461 24.4071 84.2461 25.6777C84.2461 27.6375 84.6981 29.21 85.6025 30.3945C86.5071 31.5791 87.8375 32.1719 89.5928 32.1719C91.4019 32.1719 92.7478 31.5684 93.6309 30.3623C94.5139 29.1562 94.9551 27.5946 94.9551 25.6777C94.955 23.7073 94.5089 22.1405 93.6152 20.9775C92.7214 19.8038 91.3803 19.2168 89.5928 19.2168ZM158.021 19.0713C156.244 19.0713 154.892 19.6419 153.966 20.7832C153.27 21.6402 152.835 22.7769 152.662 24.1924H163.001C162.842 22.6789 162.431 21.505 161.768 20.6709C160.928 19.6049 159.679 19.0714 158.021 19.0713ZM55.6875 23.0938H61.9062C62.1108 23.0937 62.3422 23.083 62.6006 23.0615C62.8698 23.04 63.1234 23.0021 63.3604 22.9482C64.1031 22.776 64.706 22.4638 65.1689 22.0117C65.6428 21.5487 65.9878 21.0093 66.2031 20.3955C66.4183 19.7712 66.5263 19.1361 66.5264 18.4902C66.5264 17.8441 66.4185 17.2134 66.2031 16.5996C65.9877 15.9752 65.6427 15.4317 65.1689 14.9688C64.706 14.5058 64.1033 14.1928 63.3604 14.0312C63.1234 13.9666 62.8698 13.9297 62.6006 13.9189C62.3422 13.8974 62.1108 13.8867 61.9062 13.8867H55.6875V23.0938ZM130.454 13.8867H127.578V10.9141H130.454V13.8867Z" fill="#AEE2FF"></path>
<path d="M25.1475 30.6973L30.2529 16.9727H33.1768L23.6787 42.1699H20.8848L23.7588 34.3574L16.6846 16.9727H19.7051L25.1475 30.6973ZM8.41309 16.4873C10.1681 16.4874 11.6592 16.8917 12.8867 17.6992C14.1251 18.5068 15.0512 19.6594 15.665 21.1562C16.2895 22.6529 16.5588 24.4347 16.4727 26.502H3.09277C3.20087 28.1729 3.65409 29.4975 4.45508 30.4756C5.38117 31.6063 6.7009 32.1719 8.41309 32.1719C9.56502 32.1718 10.5664 31.9083 11.417 31.3809C12.2677 30.8532 12.9353 30.0932 13.4199 29.1025L16.1816 30.0557C15.5033 31.5955 14.4808 32.7909 13.1133 33.6416C11.7565 34.4815 10.2326 34.9013 8.54199 34.9014C6.82982 34.9014 5.3332 34.5243 4.05176 33.7705C2.78108 33.006 1.78982 31.9457 1.0791 30.5889C0.368434 29.2213 0.0136719 27.6274 0.0136719 25.8076C0.0136908 23.9017 0.363545 22.2543 1.06348 20.8652C1.76334 19.4655 2.7374 18.3885 3.98633 17.6348C5.24624 16.8702 6.72244 16.4873 8.41309 16.4873ZM41.8037 16.4873C43.559 16.4873 45.0507 16.8916 46.2783 17.6992C47.5166 18.5068 48.4429 19.6595 49.0566 21.1562C49.681 22.6529 49.9503 24.4348 49.8643 26.502H36.4834C36.5915 28.1731 37.0456 29.4975 37.8467 30.4756C38.7727 31.6062 40.0916 32.1718 41.8037 32.1719C42.9559 32.1719 43.9579 31.9085 44.8086 31.3809C45.6593 30.8532 46.327 30.0932 46.8115 29.1025L49.5732 30.0557C48.8948 31.5955 47.8715 32.7909 46.5039 33.6416C45.1471 34.4815 43.6232 34.9014 41.9326 34.9014C40.2206 34.9013 38.7237 34.5242 37.4424 33.7705C36.1719 33.006 35.1814 31.9455 34.4707 30.5889C33.76 29.2213 33.4043 27.6275 33.4043 25.8076C33.4043 23.9018 33.7542 22.2543 34.4541 20.8652C35.154 19.4654 36.1289 18.3885 37.3779 17.6348C38.6378 16.8702 40.1131 16.4873 41.8037 16.4873ZM41.9004 19.0723C40.1239 19.0723 38.7727 19.6429 37.8467 20.7842C37.1515 21.641 36.7173 22.7772 36.5439 24.1924H46.8818C46.7225 22.6791 46.3123 21.5049 45.6484 20.6709C44.8085 19.6049 43.5587 19.0723 41.9004 19.0723ZM8.50977 19.0723C6.73297 19.0723 5.38117 19.6427 4.45508 20.7842C3.75989 21.641 3.32665 22.7773 3.15332 24.1924H13.4912C13.3318 22.679 12.9207 21.5049 12.2568 20.6709C11.4169 19.6051 10.1679 19.0723 8.50977 19.0723ZM24.9404 4.82812C35.6542 4.82812 44.9598 8.58888 49.6465 14.1094C50.4023 14.9998 49.1751 15.6174 48.2988 14.8457C43.1186 10.2832 34.587 7.30469 24.9404 7.30469C15.2943 7.30478 6.76418 10.2835 1.58398 14.8457C0.707844 15.6173 -0.519805 14.9996 0.235352 14.1094C4.92203 8.58919 14.2271 4.82825 24.9404 4.82812Z" fill="white"></path>
</svg>
