<svg xmlns="http://www.w3.org/2000/svg" width="585" height="176" fill="#115740" viewBox="0 0 150 55" class="css-l35zkw-Icon er5esq90" xmlns:xlink="http://www.w3.org/1999/xlink">
 <path fill-rule="evenodd" d="M68.54 21.612a4.741 4.741 0 0 1-4.76-4.76 4.741 4.741 0 0 1 4.76-4.761 4.741 4.741 0 0 1 4.76 4.76c0 2.57-2.115 4.761-4.76 4.761zm0-11.713c-3.778 0-6.877 3.099-6.877 6.877 0 3.778 3.099 6.877 6.877 6.877 3.778 0 6.877-3.099 6.877-6.877 0-3.778-3.099-6.877-6.877-6.877zm92.193.303v9.068l-7.255-9.068h-1.738v13.224h2.267v-9.068l7.255 8.992v.076H163V10.202h-2.267zm-28.338 10.957h-7.557v-3.325h7.18v-2.116h-7.18v-3.325h7.481v-2.191h-9.748v13.224h9.824V21.16zm-23.577-3.174h6.725v5.441h2.267V10.202h-2.267v5.667h-6.725v-5.667h-2.267v13.224h2.267v-5.44zm-5.743-7.783H92.268v2.04H96.5v11.184h2.343V12.242h4.232v-2.04zM56.298 19.27l-7.254-9.068H47.23v13.224h2.343v-9.068l7.254 9.068h1.738V10.202h-2.267v9.068zm82.52-2.796v-4.232h3.93c1.662 0 2.418.982 2.418 2.116 0 1.058-.605 2.04-2.418 2.04h-3.93v.076zm8.54 7.103h1.057v-1.965h-.906c-.832 0-1.512-.377-2.116-1.284 0 0-1.21-1.814-1.36-2.116 2.04-.454 3.324-1.738 3.324-3.93 0-2.116-1.435-4.156-4.685-4.156H136.551V23.35h2.267v-4.836h2.645c.151.076.302.378.605.907.302.529 1.058 1.662 1.058 1.662 1.36 1.89 2.267 2.494 4.231 2.494zm-66.425-7.103v-4.232h3.93c1.662 0 2.418.982 2.418 2.116 0 1.058-.605 2.04-2.418 2.04h-3.93v.076zm8.54 7.103h1.057v-1.965h-.906c-.832 0-1.512-.377-2.116-1.284 0 0-1.21-1.814-1.36-2.116 2.04-.454 3.324-1.738 3.324-3.93 0-2.116-1.435-4.156-4.685-4.156H78.666V23.35h2.267v-4.836h2.645c.151.076.302.378.605.907.302.529 1.058 1.662 1.058 1.662 1.284 1.89 2.267 2.494 4.231 2.494zm14.584 8.086h4.307v11.184h2.267V31.663h4.308v-2.04h-10.882v2.04zm-7.859 3.25c-1.89-.303-3.098-.68-3.098-1.814s1.133-1.89 2.947-1.89c1.36 0 2.57.53 3.174 1.436l.075.076 1.738-1.134-.075-.075c-.983-1.512-2.57-2.267-4.912-2.267-1.738 0-3.25.529-4.156 1.436a3.361 3.361 0 0 0-.983 2.418c0 2.947 2.645 3.551 5.139 3.93 2.267.302 3.25.906 3.25 2.04 0 1.889-2.494 2.04-3.25 2.04-1.058 0-2.947-.302-4.005-2.116l-.076-.076-1.738 1.134.076.076c1.133 2.04 2.947 3.022 5.667 3.022 2.645 0 5.441-1.058 5.517-4.08.075-3.023-2.494-3.779-5.29-4.157zM85.014 37.33c0 2.191-1.285 3.627-3.325 3.627h-.227c-2.04-.076-3.25-1.436-3.25-3.627v-7.708h-2.266v7.708c0 3.4 2.116 5.667 5.44 5.743h.227c3.325 0 5.517-2.267 5.517-5.743v-7.708h-2.267v7.708h.15zm-21.16-1.436v-4.232h3.93c1.663 0 2.419.982 2.419 2.116 0 1.058-.605 2.04-2.419 2.04l-3.93.076zm8.54 7.103h1.058v-1.89h-.907c-.831 0-1.511-.377-2.116-1.284 0 0-1.209-1.813-1.36-2.116 2.04-.453 3.325-1.738 3.325-3.93 0-2.115-1.436-4.155-4.685-4.155h-6.121v13.224h2.267v-4.836H66.5c.15.075.302.378.604.906.303.53 1.058 1.663 1.058 1.663 1.285 1.89 2.267 2.418 4.232 2.418zM47.23 31.663h4.307v11.184h2.267V31.663h4.308v-2.04H47.23v2.04zM17.758 45.114l-2.947-2.57h.151a16.521 16.521 0 0 0 5.441 0h.151l-2.796 2.57zm15.416-18.439c-.378 3.325-1.738 6.5-4.08 8.993-2.645 2.872-6.272 4.61-10.202 4.912h-.076v-9.824l-2.191-2.72V40.58h-.076c-3.93-.302-7.556-2.04-10.201-4.912-2.343-2.494-3.703-5.592-4.081-8.993L0 24.711v.378c0 3.249.907 6.423 2.57 9.219 1.662 2.72 4.08 4.987 6.876 6.423l8.161 7.255 8.162-7.255c2.871-1.511 5.214-3.703 6.876-6.499 1.738-2.796 2.57-5.97 2.57-9.219v-.378l-2.04 2.04zM17.758 7.255a2.548 2.548 0 0 1-2.569-2.57 2.548 2.548 0 0 1 2.57-2.57 2.548 2.548 0 0 1 2.569 2.57c-.076 1.436-1.21 2.57-2.57 2.57zm3.93 0l.076-.076c.453-.756.68-1.587.68-2.494 0-2.57-2.116-4.685-4.686-4.685-2.569 0-4.685 2.116-4.685 4.685 0 .907.227 1.738.68 2.494l.076.076H4.836v2.191h11.789v7.179l2.191 2.72V9.446h11.789V7.255h-8.917zm6.877 6.876h-7.18v2.192h2.494v8.388h2.192v-8.388h2.494V14.13zM12.166 18.44L23.577 32.72h2.796L11.486 14.13h-4.08v2.192h2.493v14.282H7.406v2.116h7.179v-2.116H12.09V18.287l.075.152z">
 </path>
</svg>