<svg xmlns="http://www.w3.org/2000/svg" width="430.026" height="431.398" viewBox="0 0 430.026 431.398">
  <g id="selby-lane-logo-white" transform="translate(-34 -34)">
    <rect id="Rectangle_6" data-name="Rectangle 6" width="430.026" height="17" transform="translate(34 34)" fill="#fff"/>
    <path id="Path_5350" data-name="Path 5350" d="M44.023,96.326c-9.875,7.869-10.338,27.619-1.234,35.8,13.578,11.727,49.221,8.023,49.221,28.082,0,13.578-10.8,15.121-22.065,15.121-14.812,0-23.762-3.24-32.4-15.121l-2.006.154.926,16.356c8.641,1.08,20.367,2.777,32.094,2.777,9.875,0,23.916-1.08,30.551-9.721,6.018-8.023,5.092-25.613-2.469-32.248-11.881-11.263-49.375-8.64-49.375-26.693,0-13.115,7.715-16.818,19.9-16.818,6.635,0,13.424,1.389,17.59,3.7,4.938,2.931,7.406,6.635,10.646,11.418H97.41l-1.08-16.51C89.078,91.852,78.74,90,68.248,90,58.99,90,50.041,91.543,44.023,96.326Z" fill="#fff"/>
    <path id="Path_5351" data-name="Path 5351" d="M114.5,90.926V93.24c7.869,0,6.635,4.32,6.635,10.03v62.8c0,4.938.617,10.03-5.709,10.03H114.5v2.314h68.971l3.394-15.892h-1.7c-7.869,10.337-12.035,12.035-24.842,12.035H136.565V133.666h21.91c6.172,0,10.338,1.389,12.343,7.561h2.006V123.174h-2.006c-2.623,6.172-7.252,6.635-12.961,6.635H136.565V94.783h23.3c12.344,0,16.356.771,22.991,12.035h1.7l-.926-15.892Z" fill="#fff"/>
    <path id="Path_5352" data-name="Path 5352" d="M200.1,178.412h68.971l3.548-16.51-2.777-.617c-7.252,10.955-8.641,13.27-22.373,13.27h-25.3V103.27c0-5.092-.617-10.03,5.709-10.03h.926V90.926H200.1V93.24h.926c6.789,0,5.709,4.783,5.709,10.03v62.8c0,4.938.617,10.03-5.709,10.03H200.1Z" fill="#fff"/>
    <path id="Path_5353" data-name="Path 5353" d="M286.621,93.24c6.789,0,5.709,4.783,5.709,10.03v62.8c0,4.938.618,10.03-5.709,10.03H285.7v2.314H330.9c18.978,0,38.728-1.543,38.728-24.379,0-17.127-13.115-21.138-27.773-22.836,11.726-2.006,19.287-6.48,19.287-19.441,0-20.059-18.67-20.83-34.1-20.83H285.7V93.24Zm21.139,81.315V133.512h13.887c15.121,0,31.785,1.543,31.785,20.521,0,16.664-8.8,20.522-24.07,20.522Zm0-79.772h19.287c12.807,0,18.67,3.549,18.67,16.973,0,15.43-8.486,18.515-22.527,18.515H307.76Z" fill="#fff"/>
    <path id="Path_5354" data-name="Path 5354" d="M373.145,90.926V93.24h.771c4.784,0,7.407,4.629,9.721,8.178l26.848,40.117v24.533c0,4.938.617,10.03-5.709,10.03h-.926v2.314h28.7V176.1h-.926c-6.017,0-5.709-5.246-5.709-10.03V136.906c2.006-2.468,18.979-25.15,27.157-36.722,2.623-3.7,5.091-6.944,10.029-6.944h.926V90.926H445.51V93.24c7.252,0,6.172,2.777,2.469,7.715L423.6,134.438,400.764,99.721C398.758,96.48,396.6,93.24,402,93.24h1.08V90.926Z" fill="#fff"/>
    <path id="Path_5355" data-name="Path 5355" d="M34,309.9h68.971l3.549-16.509-2.778-.618c-7.252,10.955-8.64,13.27-22.373,13.27h-25.3V234.762c0-5.092-.617-10.03,5.709-10.03H62.7v-2.314H34v2.314h.926c6.789,0,5.709,4.784,5.709,10.03v62.8c0,4.937.617,10.029-5.709,10.029H34Z" fill="#fff"/>
    <path id="Path_5356" data-name="Path 5356" d="M158.419,309.9V307.59H157.03c-2.777,0-4.474-.617-5.092-1.7-1.7-2.932,7.561-23.3,9.258-26.848h35.951l10.338,22.064c2.315,4.784,2.006,6.481-3.394,6.481h-1.08V309.9H233.87V307.59h-1.08c-5.092,0-7.252-3.7-9.258-7.869l-38.42-79.309h-3.857l-35.026,82.4c-1.08,2.314-2.931,4.783-5.863,4.783H137.9V309.9Zm4.474-34.716L178.015,238l17.435,37.34Z" fill="#fff"/>
    <path id="Path_5357" data-name="Path 5357" d="M263.242,309.9H281.3V307.59h-1.08c-6.172,0-5.555-5.246-5.555-10.029V235.225l67.428,77.765h3.7V234.762c0-5.092-.617-10.03,5.709-10.03h.926v-2.314h-17.9v2.314h.926c6.789,0,5.709,4.784,5.709,10.03v53.7l-57.4-66.039H263.242v2.314c8.023,0,6.789,3.858,6.789,10.03v62.8c0,4.937.617,10.029-5.709,10.029h-1.08Z" fill="#fff"/>
    <path id="Path_5358" data-name="Path 5358" d="M386.118,222.418v2.314c7.869,0,6.635,4.321,6.635,10.03v62.8c0,4.937.617,10.029-5.709,10.029h-.926V309.9h68.971l3.394-15.892h-1.7c-7.869,10.338-12.035,12.035-24.842,12.035H408.182V265.158h21.91c6.172,0,10.338,1.389,12.344,7.561h2.006V254.666h-2.006c-2.623,6.172-7.252,6.635-12.961,6.635H408.182V226.275h23.3c12.344,0,16.356.772,22.99,12.036h1.7l-.926-15.893Z" fill="#fff"/>
    <path id="Path_5359" data-name="Path 5359" d="M75.023,354.178c-20.289,0-35.41,2.967-35.41,27.658,0,22.873,13.3,27.562,33.783,27.562,8.039,0,15.408-1.052,23.83-1.818L97.8,398.2H96.557c-5.646,8.709-13.59,8.805-23.16,8.805-17.131,0-23.256-7.656-23.256-25.17,0-16.557,4.594-25.266,23.256-25.266,7.752,0,16.939-.765,21.725,6.795l1.436,2.01H97.8L97.227,356A118.488,118.488,0,0,0,75.023,354.178Z" fill="#fff"/>
    <path id="Path_5360" data-name="Path 5360" d="M122.94,408.92v-1.436h-.861c-1.723,0-2.776-.382-3.158-1.052-1.053-1.819,4.689-14.452,5.742-16.653h22.3l6.412,13.686c1.435,2.967,1.244,4.019-2.106,4.019h-.67v1.436h19.141v-1.436h-.67c-3.158,0-4.5-2.3-5.742-4.88L139.5,353.412H137.1L115.38,404.518c-.67,1.435-1.819,2.966-3.637,2.966h-1.531v1.436Zm2.775-21.533,9.379-23.065,10.815,23.16Z" fill="#fff"/>
    <path id="Path_5361" data-name="Path 5361" d="M181.193,408.92h17.8v-1.436h-.574c-3.732,0-3.541-3.254-3.541-6.22V384.707h10.145c11.2,0,24.787-.766,24.787-15.025,0-13.782-10.527-15.026-22.3-15.026H181.193v1.436h.574c4.211,0,3.541,3.254,3.541,6.22v38.952c0,3.062.383,6.22-3.541,6.22h-.574Zm13.685-26.606V357.049h12.633c19.141,0,16.557,25.265-2.488,25.265Z" fill="#fff"/>
    <path id="Path_5362" data-name="Path 5362" d="M242.316,407.484v1.436h17.8v-1.436h-.574c-3.828,0-3.541-3.254-3.541-6.22V362.312c0-3.158-.383-6.22,3.541-6.22h.574v-1.436h-17.8v1.436h.575c4.21,0,3.541,3.254,3.541,6.22v38.952c0,3.062.382,6.22-3.541,6.22Z" fill="#fff"/>
    <path id="Path_5363" data-name="Path 5363" d="M270.135,365.279h1.149c4.211-6.029,5.838-8.23,13.494-8.23h11.2v44.215c0,3.062.383,6.22-3.541,6.22h-.574v1.436h17.8v-1.436h-.575c-4.019,0-3.541-3.062-3.541-6.22V357.049h6.6c7.465,0,12.92.478,18.088,8.23h1.148l-1.627-10.623h-58Z" fill="#fff"/>
    <path id="Path_5364" data-name="Path 5364" d="M350.782,408.92v-1.436h-.861c-1.723,0-2.775-.382-3.158-1.052-1.053-1.819,4.689-14.452,5.742-16.653h22.3l6.412,13.686c1.436,2.967,1.244,4.019-2.105,4.019h-.67v1.436h19.14v-1.436h-.67c-3.158,0-4.5-2.3-5.742-4.88l-23.83-49.192h-2.393l-21.724,51.106c-.67,1.435-1.818,2.966-3.637,2.966h-1.531v1.436Zm2.776-21.533,9.379-23.065,10.814,23.16Z" fill="#fff"/>
    <path id="Path_5365" data-name="Path 5365" d="M409.035,408.92h42.779l2.2-10.24-1.722-.383c-4.5,6.8-5.36,8.23-13.877,8.23H422.721V362.312c0-3.158-.383-6.22,3.541-6.22h.574v-1.436h-17.8v1.436h.574c4.211,0,3.541,2.967,3.541,6.22v38.952c0,3.062.383,6.22-3.541,6.22h-.574Z" fill="#fff"/>
    <rect id="Rectangle_7" data-name="Rectangle 7" width="430.026" height="17" transform="translate(34 448.398)" fill="#fff"/>
  </g>
</svg>
