<svg class="logo" fill="none" height="59" viewBox="0 0 241 59" width="241" xmlns="http://www.w3.org/2000/svg"><path d="M7.6682 29.4459H18.2193L33.8664 0.000961304H24.4373L15.422 16.5448H15.3562L14.5312 5.85426H4.36865L7.6682 29.4459Z" fill="#23D244"></path><path d="M32.504 26.707H38.6082L38.8064 29.4455H48.8697L45.1084 5.85388H35.0117L22.4734 29.4455H31.1842L32.504 26.707ZM37.8494 15.4885H37.9153L38.2454 20.9329H35.2756L37.8494 15.4885Z" fill="#23D244"></path><path d="M67.2396 5.85388L66.2168 11.5291L65.9198 13.6408H65.854L61.6306 5.85388H53.8436L49.686 29.4455H58.0671L59.4858 21.4935L59.7828 19.3818H59.8486L65.3591 29.4455H71.4303L75.6206 5.85388H67.2396Z" fill="#23D244"></path><path d="M100.571 15.5879H88.528L87.571 21.0653H90.1118C89.8478 22.8142 88.9897 23.8039 87.8019 23.8039C86.1192 23.8039 85.8222 21.9561 85.8222 20.4385C85.8222 18.129 86.5152 11.4968 89.3199 11.4968C90.8706 11.4968 91.2996 13.5755 91.2334 14.6313L100.637 13.5755C99.5483 7.83407 95.2918 5.22752 89.2868 5.22752C79.7841 5.22752 75.4287 11.8928 75.4287 18.7886C75.4287 25.6843 79.619 30.0728 85.8222 30.0728C89.5838 30.0728 91.2996 28.7199 92.5202 27.3343H92.5863L93.0154 29.446H98.1627L100.571 15.5879Z" fill="#23D244"></path><path d="M125.907 5.85425H117.262L114.524 20.9991C114.326 22.088 113.831 22.9788 112.676 22.9788C111.785 22.9788 111.257 22.4509 111.257 21.4939C111.257 20.8009 111.521 19.5804 111.719 18.5241L113.963 5.85388H104.427L102.447 17.4025C102.117 19.316 101.721 21.0318 101.721 22.5498C101.721 27.9941 106.704 30.0727 111.917 30.0727C118.615 30.0727 122.311 26.8721 123.135 22.1538L125.907 5.85388V5.85425Z" fill="#23D244"></path><path d="M131.941 26.707H138.046L138.243 29.4455H148.307L144.545 5.85388H134.449L121.911 29.4455H130.621L131.941 26.707ZM137.286 15.4885H137.352L137.682 20.9329H134.713L137.286 15.4885Z" fill="#23D244"></path><path d="M172.188 29.4459V29.3797L170.109 20.273C172.913 18.6892 174.233 15.9834 174.233 13.1129C174.233 7.80052 170.01 5.85388 165.028 5.85388H153.248L149.157 29.4455H158.659L160.012 21.5928H160.936L162.025 29.4455H172.188V29.4459ZM161.695 12.1232H163.345C164.401 12.1232 165.094 12.4203 165.094 13.575C165.094 14.5647 164.368 15.3238 162.982 15.3238H161.134L161.695 12.1232Z" fill="#23D244"></path><path d="M173.709 29.4455H186.149C194.991 29.4455 199.545 23.2424 199.545 16.3462C199.545 11.0339 196.41 5.85388 187.567 5.85388H177.866L173.709 29.4455ZM186.281 12.1228H186.742C188.194 12.1228 189.118 12.9478 189.118 15.5213C189.118 17.8969 188.293 23.2093 184.862 23.2093H184.367L186.281 12.1228Z" fill="#23D244"></path><path d="M23.0306 57.7545V57.6883L20.952 48.5816C23.7567 46.9978 25.0765 44.292 25.0765 41.4215C25.0765 36.1091 20.8531 34.1625 15.8709 34.1625H4.09143L0 57.7545H9.50268L10.8556 49.9014H11.7795L12.8684 57.7545H23.031H23.0306ZM12.5383 40.4318H14.1882C15.2441 40.4318 15.9371 40.7285 15.9371 41.8836C15.9371 42.8733 15.2114 43.6321 13.8254 43.6321H11.9776L12.5386 40.4318H12.5383Z" fill="#23D244"></path><path d="M37.0247 40.7947H45.2407L46.4285 34.1625H28.7099L24.5522 57.7545H42.5679L43.7558 51.1223H35.21L35.5402 49.1426H42.6672L43.7892 42.6755H36.6949L37.0251 40.7947H37.0247Z" fill="#23D244"></path><path d="M62.245 34.1625L61.2222 39.8377L60.9252 41.9494H60.8594L56.6359 34.1625H48.849L44.6914 57.7545H53.0724L54.4911 49.8025L54.7882 47.6908H54.854L60.3641 57.7545H66.4353L70.626 34.1625H62.245Z" fill="#23D244"></path><path d="M81.9745 40.7947H90.1905L91.3783 34.1625H73.6597L69.5024 57.7545H87.5178L88.7056 51.1223H80.1599L80.49 49.1426H87.617L88.7387 42.6755H81.6448L81.9745 40.7947Z" fill="#23D244"></path><path d="M94.0954 57.7545H101.981L107.328 48.2518H107.394L108.615 57.7545H115.938L128.48 34.1625H119.088L114.801 43.1373H114.735L113.473 34.1625H106.862L101.981 43.1373H101.915L101.354 34.1625H91.9836L94.0954 57.7545Z" fill="#23D244"></path><path d="M130.241 55.0156H136.345L136.543 57.7545H146.606L142.845 34.1625H132.748L120.21 57.7545H128.921L130.241 55.0156ZM135.586 43.7972H135.652L135.982 49.2415H133.012L135.586 43.7972Z" fill="#23D244"></path><path d="M147.456 57.7545H163.36C167.517 57.7545 171.246 55.5766 171.246 51.4521C171.246 48.1857 168.936 46.3379 166.791 45.9751V45.8431C169.926 45.6118 172.532 42.8733 172.532 39.6399C172.532 35.6143 168.606 34.1625 163.525 34.1625H151.547L147.456 57.7545ZM160.258 48.3838C161.182 48.3838 161.875 48.8125 161.875 49.9014C161.875 51.2212 160.885 51.7492 159.994 51.7492H157.652L158.246 48.3838H160.258ZM159.664 40.201H161.743C162.601 40.201 163.228 40.6296 163.228 41.5535C163.228 42.5766 162.535 43.3354 161.545 43.3354H159.103L159.664 40.201Z" fill="#23D244"></path><path d="M188.573 57.7545L189.761 51.1223H182.634L185.636 34.1625H176.134L171.976 57.7545H188.573Z" fill="#23D244"></path><path d="M202.686 40.7947H210.902L212.09 34.1625H194.371L190.214 57.7545H208.229L209.417 51.1223H200.871L201.201 49.1426H208.328L209.45 42.6755H202.356L202.686 40.7947Z" fill="#23D244"></path><path d="M235 37.2639C231.734 34.5581 226.751 33.5353 223.287 33.5353C216.985 33.5353 212.662 36.9668 212.662 42.3119C212.662 46.0405 214.774 48.1853 218.403 49.34C221.01 50.165 223.683 50.2308 223.683 51.5506C223.683 52.1778 223.056 52.4749 221.868 52.4749C219.063 52.4749 216.457 50.8249 214.411 49.1753L209.858 54.0255C213.157 57.2262 218.634 58.3809 222.429 58.3809C228.665 58.3809 233.449 55.2792 233.449 49.769C233.449 45.9416 231.173 43.6648 227.411 42.5101C224.805 41.7182 222.429 41.7182 222.429 40.4314C222.429 39.8373 222.957 39.5076 224.145 39.5076C226.553 39.5076 228.797 40.8274 230.447 42.1141L235 37.2639Z" fill="#23D244"></path><path d="M238.18 52.71C239.71 52.71 240.85 53.91 240.85 55.36C240.85 56.8 239.71 57.95 238.18 57.95C236.66 57.95 235.52 56.8 235.52 55.36C235.52 53.9 236.66 52.71 238.18 52.71ZM238.19 53.15C236.95 53.15 236.02 54.13 236.02 55.34C236.02 56.56 236.95 57.52 238.19 57.52C239.43 57.52 240.37 56.56 240.37 55.34C240.37 54.13 239.43 53.15 238.19 53.15ZM238.26 55.6H237.68V56.7H237.04V53.82H238.39C238.89 53.82 239.53 53.95 239.53 54.72C239.53 55.18 239.26 55.41 238.91 55.52L239.59 56.7H238.81L238.26 55.6ZM237.68 54.28V55.14H238.25C238.55 55.14 238.86 55.08 238.86 54.72C238.86 54.32 238.55 54.28 238.25 54.28H237.68Z" fill="#23D244"></path></svg>